<mxfile host="app.diagrams.net" modified="2023-08-20T14:50:19.848Z" agent="Mozilla/5.0 (Windows NT 10.0; Win64; x64) AppleWebKit/537.36 (KHTML, like Gecko) Chrome/111.0.0.0 Safari/537.36" etag="mPjJRoRf4x-PlLTBZPBW" version="21.6.8" type="google">
  <diagram name="Page-1" id="FO1PxF98T1ZGTG8aZyOI">
    <mxGraphModel grid="1" page="1" gridSize="10" guides="1" tooltips="1" connect="1" arrows="1" fold="1" pageScale="1" pageWidth="827" pageHeight="1169" math="0" shadow="0">
      <root>
        <mxCell id="0" />
        <mxCell id="1" parent="0" />
        <mxCell id="gg4HVY9TAaVVfvh8KX-W-1" value="Registrirani&lt;br&gt;&amp;nbsp;korisnik" style="shape=umlActor;verticalLabelPosition=bottom;verticalAlign=top;html=1;outlineConnect=0;" vertex="1" parent="1">
          <mxGeometry x="50" y="398" width="30" height="60" as="geometry" />
        </mxCell>
        <mxCell id="gg4HVY9TAaVVfvh8KX-W-9" value="Registracija" style="ellipse;whiteSpace=wrap;html=1;" vertex="1" parent="1">
          <mxGeometry x="170" y="80" width="120" height="80" as="geometry" />
        </mxCell>
        <mxCell id="gg4HVY9TAaVVfvh8KX-W-23" value="" style="endArrow=none;html=1;rounded=0;exitX=0.75;exitY=0.1;exitDx=0;exitDy=0;exitPerimeter=0;" edge="1" parent="1" source="gg4HVY9TAaVVfvh8KX-W-1" target="gg4HVY9TAaVVfvh8KX-W-24">
          <mxGeometry width="50" height="50" relative="1" as="geometry">
            <mxPoint x="390" y="340" as="sourcePoint" />
            <mxPoint x="440" y="290" as="targetPoint" />
          </mxGeometry>
        </mxCell>
        <mxCell id="gg4HVY9TAaVVfvh8KX-W-27" value="" style="endArrow=none;dashed=1;html=1;dashPattern=1 3;strokeWidth=2;rounded=0;exitX=1;exitY=0.5;exitDx=0;exitDy=0;" edge="1" parent="1" source="gg4HVY9TAaVVfvh8KX-W-9">
          <mxGeometry width="50" height="50" relative="1" as="geometry">
            <mxPoint x="390" y="320" as="sourcePoint" />
            <mxPoint x="400" y="120" as="targetPoint" />
          </mxGeometry>
        </mxCell>
        <mxCell id="gg4HVY9TAaVVfvh8KX-W-28" value="&amp;lt;&amp;lt;include&amp;gt;&amp;gt;" style="text;html=1;align=center;verticalAlign=middle;resizable=0;points=[];autosize=1;strokeColor=none;fillColor=none;" vertex="1" parent="1">
          <mxGeometry x="290" y="90" width="90" height="30" as="geometry" />
        </mxCell>
        <mxCell id="gg4HVY9TAaVVfvh8KX-W-29" value="Odabir pretplate" style="ellipse;whiteSpace=wrap;html=1;" vertex="1" parent="1">
          <mxGeometry x="400" y="80" width="120" height="80" as="geometry" />
        </mxCell>
        <mxCell id="gg4HVY9TAaVVfvh8KX-W-40" value="PretraÅ¾ivanje filmova" style="ellipse;whiteSpace=wrap;html=1;" vertex="1" parent="1">
          <mxGeometry x="170" y="370" width="120" height="80" as="geometry" />
        </mxCell>
        <mxCell id="gg4HVY9TAaVVfvh8KX-W-41" value="" style="endArrow=none;html=1;rounded=0;entryX=0;entryY=0;entryDx=0;entryDy=0;exitX=0.5;exitY=0.5;exitDx=0;exitDy=0;exitPerimeter=0;" edge="1" parent="1" source="gg4HVY9TAaVVfvh8KX-W-1" target="gg4HVY9TAaVVfvh8KX-W-40">
          <mxGeometry width="50" height="50" relative="1" as="geometry">
            <mxPoint x="390" y="320" as="sourcePoint" />
            <mxPoint x="440" y="270" as="targetPoint" />
          </mxGeometry>
        </mxCell>
        <mxCell id="gg4HVY9TAaVVfvh8KX-W-43" value="" style="endArrow=none;dashed=1;html=1;dashPattern=1 3;strokeWidth=2;rounded=0;exitX=0.767;exitY=0.025;exitDx=0;exitDy=0;exitPerimeter=0;entryX=0;entryY=0.5;entryDx=0;entryDy=0;" edge="1" parent="1" source="gg4HVY9TAaVVfvh8KX-W-40" target="gg4HVY9TAaVVfvh8KX-W-44">
          <mxGeometry width="50" height="50" relative="1" as="geometry">
            <mxPoint x="390" y="320" as="sourcePoint" />
            <mxPoint x="330" y="330" as="targetPoint" />
          </mxGeometry>
        </mxCell>
        <mxCell id="gg4HVY9TAaVVfvh8KX-W-45" value="Po nazivu filma" style="ellipse;whiteSpace=wrap;html=1;" vertex="1" parent="1">
          <mxGeometry x="414" y="370" width="120" height="60" as="geometry" />
        </mxCell>
        <mxCell id="gg4HVY9TAaVVfvh8KX-W-48" value="" style="endArrow=none;dashed=1;html=1;dashPattern=1 3;strokeWidth=2;rounded=0;exitX=1;exitY=0.375;exitDx=0;exitDy=0;exitPerimeter=0;entryX=0;entryY=0.5;entryDx=0;entryDy=0;" edge="1" parent="1" source="gg4HVY9TAaVVfvh8KX-W-40" target="gg4HVY9TAaVVfvh8KX-W-45">
          <mxGeometry width="50" height="50" relative="1" as="geometry">
            <mxPoint x="390" y="420" as="sourcePoint" />
            <mxPoint x="440" y="370" as="targetPoint" />
          </mxGeometry>
        </mxCell>
        <mxCell id="gg4HVY9TAaVVfvh8KX-W-50" value="" style="endArrow=none;dashed=1;html=1;dashPattern=1 3;strokeWidth=2;rounded=0;exitX=0.575;exitY=1.038;exitDx=0;exitDy=0;exitPerimeter=0;entryX=0.067;entryY=0.3;entryDx=0;entryDy=0;entryPerimeter=0;" edge="1" parent="1" source="gg4HVY9TAaVVfvh8KX-W-40" target="gg4HVY9TAaVVfvh8KX-W-47">
          <mxGeometry width="50" height="50" relative="1" as="geometry">
            <mxPoint x="390" y="420" as="sourcePoint" />
            <mxPoint x="440" y="370" as="targetPoint" />
          </mxGeometry>
        </mxCell>
        <mxCell id="gg4HVY9TAaVVfvh8KX-W-52" value="&amp;lt;&amp;lt;extend&amp;gt;&amp;gt;" style="text;html=1;align=center;verticalAlign=middle;resizable=0;points=[];autosize=1;strokeColor=none;fillColor=none;" vertex="1" parent="1">
          <mxGeometry x="319" y="370" width="90" height="30" as="geometry" />
        </mxCell>
        <mxCell id="gg4HVY9TAaVVfvh8KX-W-55" value="" style="endArrow=none;html=1;rounded=0;exitX=1;exitY=1;exitDx=0;exitDy=0;exitPerimeter=0;entryX=0.292;entryY=0.025;entryDx=0;entryDy=0;entryPerimeter=0;" edge="1" parent="1" source="gg4HVY9TAaVVfvh8KX-W-1" target="gg4HVY9TAaVVfvh8KX-W-56">
          <mxGeometry width="50" height="50" relative="1" as="geometry">
            <mxPoint x="390" y="420" as="sourcePoint" />
            <mxPoint x="180" y="640" as="targetPoint" />
            <Array as="points" />
          </mxGeometry>
        </mxCell>
        <mxCell id="gg4HVY9TAaVVfvh8KX-W-57" value="" style="endArrow=none;dashed=1;html=1;dashPattern=1 3;strokeWidth=2;rounded=0;exitX=1;exitY=0.5;exitDx=0;exitDy=0;" edge="1" parent="1" source="gg4HVY9TAaVVfvh8KX-W-29">
          <mxGeometry width="50" height="50" relative="1" as="geometry">
            <mxPoint x="390" y="320" as="sourcePoint" />
            <mxPoint x="720" y="120" as="targetPoint" />
          </mxGeometry>
        </mxCell>
        <mxCell id="gg4HVY9TAaVVfvh8KX-W-58" value="&amp;lt;&amp;lt;include&amp;gt;&amp;gt;" style="text;html=1;align=center;verticalAlign=middle;resizable=0;points=[];autosize=1;strokeColor=none;fillColor=none;" vertex="1" parent="1">
          <mxGeometry x="570" y="90" width="90" height="30" as="geometry" />
        </mxCell>
        <mxCell id="gg4HVY9TAaVVfvh8KX-W-59" value="Naplata pretplate" style="ellipse;whiteSpace=wrap;html=1;" vertex="1" parent="1">
          <mxGeometry x="720" y="80" width="120" height="80" as="geometry" />
        </mxCell>
        <mxCell id="gg4HVY9TAaVVfvh8KX-W-60" value="" style="endArrow=none;html=1;rounded=0;exitX=1;exitY=0.5;exitDx=0;exitDy=0;entryX=0.5;entryY=0.5;entryDx=0;entryDy=0;entryPerimeter=0;" edge="1" parent="1" source="gg4HVY9TAaVVfvh8KX-W-59" target="gg4HVY9TAaVVfvh8KX-W-61">
          <mxGeometry width="50" height="50" relative="1" as="geometry">
            <mxPoint x="390" y="320" as="sourcePoint" />
            <mxPoint x="1050" y="80" as="targetPoint" />
          </mxGeometry>
        </mxCell>
        <mxCell id="gg4HVY9TAaVVfvh8KX-W-61" value="Banka" style="shape=umlActor;verticalLabelPosition=bottom;verticalAlign=top;html=1;outlineConnect=0;" vertex="1" parent="1">
          <mxGeometry x="1080" y="90" width="30" height="60" as="geometry" />
        </mxCell>
        <mxCell id="gg4HVY9TAaVVfvh8KX-W-72" value="Administrator" style="shape=umlActor;verticalLabelPosition=bottom;verticalAlign=top;html=1;outlineConnect=0;" vertex="1" parent="1">
          <mxGeometry x="1130" y="495" width="30" height="60" as="geometry" />
        </mxCell>
        <mxCell id="gg4HVY9TAaVVfvh8KX-W-82" value="" style="endArrow=none;html=1;rounded=0;exitX=0.5;exitY=0;exitDx=0;exitDy=0;exitPerimeter=0;entryX=1;entryY=1;entryDx=0;entryDy=0;" edge="1" parent="1" source="gg4HVY9TAaVVfvh8KX-W-72" target="gg4HVY9TAaVVfvh8KX-W-74">
          <mxGeometry width="50" height="50" relative="1" as="geometry">
            <mxPoint x="850" y="520" as="sourcePoint" />
            <mxPoint x="900" y="470" as="targetPoint" />
          </mxGeometry>
        </mxCell>
        <mxCell id="gg4HVY9TAaVVfvh8KX-W-95" value="" style="endArrow=none;html=1;rounded=0;exitX=1;exitY=0.5;exitDx=0;exitDy=0;entryX=0.5;entryY=0.5;entryDx=0;entryDy=0;entryPerimeter=0;" edge="1" parent="1" source="gg4HVY9TAaVVfvh8KX-W-94" target="gg4HVY9TAaVVfvh8KX-W-72">
          <mxGeometry width="50" height="50" relative="1" as="geometry">
            <mxPoint x="670" y="630" as="sourcePoint" />
            <mxPoint x="1010" y="530" as="targetPoint" />
          </mxGeometry>
        </mxCell>
        <mxCell id="gg4HVY9TAaVVfvh8KX-W-110" value="Online Videoteka" style="swimlane;whiteSpace=wrap;html=1;strokeColor=#006EAF;fillColor=#1ba1e2;fontColor=#ffffff;" vertex="1" parent="1">
          <mxGeometry x="150" y="20" width="880" height="1170" as="geometry" />
        </mxCell>
        <mxCell id="gg4HVY9TAaVVfvh8KX-W-77" value="Nadogradnja sustava" style="ellipse;whiteSpace=wrap;html=1;" vertex="1" parent="gg4HVY9TAaVVfvh8KX-W-110">
          <mxGeometry x="610" y="430" width="120" height="70" as="geometry" />
        </mxCell>
        <mxCell id="gg4HVY9TAaVVfvh8KX-W-94" value="Upravljanje korisnicima" style="ellipse;whiteSpace=wrap;html=1;" vertex="1" parent="gg4HVY9TAaVVfvh8KX-W-110">
          <mxGeometry x="620" y="530" width="120" height="80" as="geometry" />
        </mxCell>
        <mxCell id="0nW2uWBSh4pnIqIu4Ily-17" value="Upravljanje recenzijama" style="ellipse;whiteSpace=wrap;html=1;" vertex="1" parent="gg4HVY9TAaVVfvh8KX-W-110">
          <mxGeometry x="620" y="670" width="120" height="80" as="geometry" />
        </mxCell>
        <mxCell id="gg4HVY9TAaVVfvh8KX-W-83" value="Upravljanje sadrÅ¾ajem" style="ellipse;whiteSpace=wrap;html=1;" vertex="1" parent="gg4HVY9TAaVVfvh8KX-W-110">
          <mxGeometry x="610" y="310" width="120" height="80" as="geometry" />
        </mxCell>
        <mxCell id="gg4HVY9TAaVVfvh8KX-W-74" value="Upravljanje sustavom" style="ellipse;whiteSpace=wrap;html=1;" vertex="1" parent="gg4HVY9TAaVVfvh8KX-W-110">
          <mxGeometry x="610" y="180" width="120" height="80" as="geometry" />
        </mxCell>
        <mxCell id="0nW2uWBSh4pnIqIu4Ily-19" value="Upravljanje komentarima" style="ellipse;whiteSpace=wrap;html=1;" vertex="1" parent="gg4HVY9TAaVVfvh8KX-W-110">
          <mxGeometry x="630" y="810" width="120" height="80" as="geometry" />
        </mxCell>
        <mxCell id="0nW2uWBSh4pnIqIu4Ily-23" value="Pregled izvjeÅ¡taja" style="ellipse;whiteSpace=wrap;html=1;" vertex="1" parent="gg4HVY9TAaVVfvh8KX-W-110">
          <mxGeometry x="630" y="970" width="120" height="80" as="geometry" />
        </mxCell>
        <mxCell id="0nW2uWBSh4pnIqIu4Ily-29" value="&amp;lt;&amp;lt;extend&amp;gt;&amp;gt;" style="text;html=1;align=center;verticalAlign=middle;resizable=0;points=[];autosize=1;strokeColor=none;fillColor=none;" vertex="1" parent="gg4HVY9TAaVVfvh8KX-W-110">
          <mxGeometry x="80" y="150" width="90" height="30" as="geometry" />
        </mxCell>
        <mxCell id="gg4HVY9TAaVVfvh8KX-W-24" value="Prijava" style="ellipse;whiteSpace=wrap;html=1;" vertex="1" parent="gg4HVY9TAaVVfvh8KX-W-110">
          <mxGeometry x="20" y="210" width="120" height="80" as="geometry" />
        </mxCell>
        <mxCell id="gg4HVY9TAaVVfvh8KX-W-51" value="&amp;lt;&amp;lt;extend&amp;gt;&amp;gt;" style="text;html=1;align=center;verticalAlign=middle;resizable=0;points=[];autosize=1;strokeColor=none;fillColor=none;" vertex="1" parent="gg4HVY9TAaVVfvh8KX-W-110">
          <mxGeometry x="160" y="280" width="90" height="30" as="geometry" />
        </mxCell>
        <mxCell id="0nW2uWBSh4pnIqIu4Ily-31" value="&amp;lt;&amp;lt;include&amp;gt;&amp;gt;" style="text;html=1;align=center;verticalAlign=middle;resizable=0;points=[];autosize=1;strokeColor=none;fillColor=none;" vertex="1" parent="gg4HVY9TAaVVfvh8KX-W-110">
          <mxGeometry x="70" y="300" width="90" height="30" as="geometry" />
        </mxCell>
        <mxCell id="0nW2uWBSh4pnIqIu4Ily-33" value="&amp;lt;&amp;lt;include&amp;gt;&amp;gt;" style="text;html=1;align=center;verticalAlign=middle;resizable=0;points=[];autosize=1;strokeColor=none;fillColor=none;" vertex="1" parent="gg4HVY9TAaVVfvh8KX-W-110">
          <mxGeometry x="70" y="470" width="90" height="30" as="geometry" />
        </mxCell>
        <mxCell id="gg4HVY9TAaVVfvh8KX-W-56" value="Gledanje filma" style="ellipse;whiteSpace=wrap;html=1;" vertex="1" parent="gg4HVY9TAaVVfvh8KX-W-110">
          <mxGeometry x="10" y="670" width="120" height="80" as="geometry" />
        </mxCell>
        <mxCell id="gg4HVY9TAaVVfvh8KX-W-66" value="Ocjenjivanje filma" style="ellipse;whiteSpace=wrap;html=1;" vertex="1" parent="gg4HVY9TAaVVfvh8KX-W-110">
          <mxGeometry x="20" y="810" width="120" height="80" as="geometry" />
        </mxCell>
        <mxCell id="gg4HVY9TAaVVfvh8KX-W-70" value="Dodavanje filmova u My List" style="ellipse;whiteSpace=wrap;html=1;" vertex="1" parent="gg4HVY9TAaVVfvh8KX-W-110">
          <mxGeometry x="20" y="1080" width="120" height="80" as="geometry" />
        </mxCell>
        <mxCell id="gg4HVY9TAaVVfvh8KX-W-68" value="Komentari" style="ellipse;whiteSpace=wrap;html=1;" vertex="1" parent="gg4HVY9TAaVVfvh8KX-W-110">
          <mxGeometry x="20" y="940" width="120" height="80" as="geometry" />
        </mxCell>
        <mxCell id="gg4HVY9TAaVVfvh8KX-W-47" value="Po godini izlaska" style="ellipse;whiteSpace=wrap;html=1;" vertex="1" parent="gg4HVY9TAaVVfvh8KX-W-110">
          <mxGeometry x="264" y="520" width="120" height="70" as="geometry" />
        </mxCell>
        <mxCell id="gg4HVY9TAaVVfvh8KX-W-44" value="Po glumcima" style="ellipse;whiteSpace=wrap;html=1;" vertex="1" parent="gg4HVY9TAaVVfvh8KX-W-110">
          <mxGeometry x="264" y="260" width="120" height="60" as="geometry" />
        </mxCell>
        <mxCell id="0nW2uWBSh4pnIqIu4Ily-41" value="" style="endArrow=none;dashed=1;html=1;dashPattern=1 3;strokeWidth=2;rounded=0;exitX=0.5;exitY=1;exitDx=0;exitDy=0;" edge="1" parent="gg4HVY9TAaVVfvh8KX-W-110" source="gg4HVY9TAaVVfvh8KX-W-56">
          <mxGeometry width="50" height="50" relative="1" as="geometry">
            <mxPoint x="290" y="700" as="sourcePoint" />
            <mxPoint x="70" y="810" as="targetPoint" />
          </mxGeometry>
        </mxCell>
        <mxCell id="0nW2uWBSh4pnIqIu4Ily-42" value="" style="endArrow=none;dashed=1;html=1;dashPattern=1 3;strokeWidth=2;rounded=0;exitX=0.5;exitY=1;exitDx=0;exitDy=0;entryX=0.5;entryY=0;entryDx=0;entryDy=0;" edge="1" parent="gg4HVY9TAaVVfvh8KX-W-110" source="gg4HVY9TAaVVfvh8KX-W-66" target="gg4HVY9TAaVVfvh8KX-W-68">
          <mxGeometry width="50" height="50" relative="1" as="geometry">
            <mxPoint x="290" y="700" as="sourcePoint" />
            <mxPoint x="340" y="650" as="targetPoint" />
          </mxGeometry>
        </mxCell>
        <mxCell id="0nW2uWBSh4pnIqIu4Ily-43" value="" style="endArrow=none;dashed=1;html=1;dashPattern=1 3;strokeWidth=2;rounded=0;exitX=0.5;exitY=1;exitDx=0;exitDy=0;entryX=0.5;entryY=0;entryDx=0;entryDy=0;" edge="1" parent="gg4HVY9TAaVVfvh8KX-W-110" source="gg4HVY9TAaVVfvh8KX-W-68" target="gg4HVY9TAaVVfvh8KX-W-70">
          <mxGeometry width="50" height="50" relative="1" as="geometry">
            <mxPoint x="290" y="700" as="sourcePoint" />
            <mxPoint x="340" y="650" as="targetPoint" />
          </mxGeometry>
        </mxCell>
        <mxCell id="0nW2uWBSh4pnIqIu4Ily-44" value="&amp;lt;&amp;lt;include&amp;gt;&amp;gt;" style="text;html=1;align=center;verticalAlign=middle;resizable=0;points=[];autosize=1;strokeColor=none;fillColor=none;" vertex="1" parent="gg4HVY9TAaVVfvh8KX-W-110">
          <mxGeometry x="70" y="770" width="90" height="30" as="geometry" />
        </mxCell>
        <mxCell id="0nW2uWBSh4pnIqIu4Ily-46" value="&amp;lt;&amp;lt;include&amp;gt;&amp;gt;" style="text;html=1;align=center;verticalAlign=middle;resizable=0;points=[];autosize=1;strokeColor=none;fillColor=none;" vertex="1" parent="gg4HVY9TAaVVfvh8KX-W-110">
          <mxGeometry x="80" y="1040" width="90" height="30" as="geometry" />
        </mxCell>
        <mxCell id="gg4HVY9TAaVVfvh8KX-W-53" value="&amp;lt;&amp;lt;extend&amp;gt;&amp;gt;" style="text;html=1;align=center;verticalAlign=middle;resizable=0;points=[];autosize=1;strokeColor=none;fillColor=none;" vertex="1" parent="gg4HVY9TAaVVfvh8KX-W-110">
          <mxGeometry x="150" y="455" width="90" height="30" as="geometry" />
        </mxCell>
        <mxCell id="0nW2uWBSh4pnIqIu4Ily-45" value="&amp;lt;&amp;lt;include&amp;gt;&amp;gt;" style="text;html=1;align=center;verticalAlign=middle;resizable=0;points=[];autosize=1;strokeColor=none;fillColor=none;" vertex="1" parent="gg4HVY9TAaVVfvh8KX-W-110">
          <mxGeometry x="70" y="900" width="90" height="30" as="geometry" />
        </mxCell>
        <mxCell id="0nW2uWBSh4pnIqIu4Ily-47" value="Pogled na detalje filma" style="ellipse;whiteSpace=wrap;html=1;" vertex="1" parent="gg4HVY9TAaVVfvh8KX-W-110">
          <mxGeometry x="10" y="515" width="120" height="80" as="geometry" />
        </mxCell>
        <mxCell id="0nW2uWBSh4pnIqIu4Ily-50" value="&amp;lt;&amp;lt;include&amp;gt;&amp;gt;" style="text;html=1;align=center;verticalAlign=middle;resizable=0;points=[];autosize=1;strokeColor=none;fillColor=none;" vertex="1" parent="gg4HVY9TAaVVfvh8KX-W-110">
          <mxGeometry x="70" y="620" width="90" height="30" as="geometry" />
        </mxCell>
        <mxCell id="NVhraX7yO4u_frwCjtcj-2" value="" style="endArrow=none;dashed=1;html=1;dashPattern=1 3;strokeWidth=2;rounded=0;exitX=0.5;exitY=1;exitDx=0;exitDy=0;entryX=0.5;entryY=0;entryDx=0;entryDy=0;" edge="1" parent="gg4HVY9TAaVVfvh8KX-W-110" source="0nW2uWBSh4pnIqIu4Ily-47" target="gg4HVY9TAaVVfvh8KX-W-56">
          <mxGeometry width="50" height="50" relative="1" as="geometry">
            <mxPoint x="360" y="710" as="sourcePoint" />
            <mxPoint x="410" y="660" as="targetPoint" />
          </mxGeometry>
        </mxCell>
        <mxCell id="NVhraX7yO4u_frwCjtcj-3" value="KljuÄne rijeÄi" style="ellipse;whiteSpace=wrap;html=1;" vertex="1" parent="gg4HVY9TAaVVfvh8KX-W-110">
          <mxGeometry x="264" y="430" width="120" height="70" as="geometry" />
        </mxCell>
        <mxCell id="NVhraX7yO4u_frwCjtcj-5" value="&amp;lt;&amp;lt;extend&amp;gt;&amp;gt;" style="text;html=1;align=center;verticalAlign=middle;resizable=0;points=[];autosize=1;strokeColor=none;fillColor=none;" vertex="1" parent="gg4HVY9TAaVVfvh8KX-W-110">
          <mxGeometry x="170" y="410" width="90" height="30" as="geometry" />
        </mxCell>
        <mxCell id="0nW2uWBSh4pnIqIu4Ily-14" value="Korisnik gost" style="shape=umlActor;verticalLabelPosition=bottom;verticalAlign=top;html=1;outlineConnect=0;" vertex="1" parent="1">
          <mxGeometry x="50" y="170" width="30" height="60" as="geometry" />
        </mxCell>
        <mxCell id="0nW2uWBSh4pnIqIu4Ily-16" value="" style="endArrow=none;html=1;rounded=0;exitX=1;exitY=0.5;exitDx=0;exitDy=0;entryX=0.5;entryY=0.5;entryDx=0;entryDy=0;entryPerimeter=0;" edge="1" parent="1" source="gg4HVY9TAaVVfvh8KX-W-77" target="gg4HVY9TAaVVfvh8KX-W-72">
          <mxGeometry width="50" height="50" relative="1" as="geometry">
            <mxPoint x="700" y="630" as="sourcePoint" />
            <mxPoint x="750" y="580" as="targetPoint" />
          </mxGeometry>
        </mxCell>
        <mxCell id="0nW2uWBSh4pnIqIu4Ily-18" value="" style="endArrow=none;html=1;rounded=0;exitX=1;exitY=0.5;exitDx=0;exitDy=0;entryX=0.5;entryY=0.5;entryDx=0;entryDy=0;entryPerimeter=0;" edge="1" parent="1" source="gg4HVY9TAaVVfvh8KX-W-83" target="gg4HVY9TAaVVfvh8KX-W-72">
          <mxGeometry width="50" height="50" relative="1" as="geometry">
            <mxPoint x="700" y="610" as="sourcePoint" />
            <mxPoint x="750" y="560" as="targetPoint" />
          </mxGeometry>
        </mxCell>
        <mxCell id="0nW2uWBSh4pnIqIu4Ily-21" value="" style="endArrow=none;html=1;rounded=0;exitX=1;exitY=0.5;exitDx=0;exitDy=0;entryX=0.5;entryY=0.5;entryDx=0;entryDy=0;entryPerimeter=0;" edge="1" parent="1" source="0nW2uWBSh4pnIqIu4Ily-17" target="gg4HVY9TAaVVfvh8KX-W-72">
          <mxGeometry width="50" height="50" relative="1" as="geometry">
            <mxPoint x="700" y="510" as="sourcePoint" />
            <mxPoint x="750" y="460" as="targetPoint" />
          </mxGeometry>
        </mxCell>
        <mxCell id="0nW2uWBSh4pnIqIu4Ily-22" value="" style="endArrow=none;html=1;rounded=0;exitX=0.908;exitY=0.238;exitDx=0;exitDy=0;exitPerimeter=0;" edge="1" parent="1" source="0nW2uWBSh4pnIqIu4Ily-19" target="gg4HVY9TAaVVfvh8KX-W-72">
          <mxGeometry width="50" height="50" relative="1" as="geometry">
            <mxPoint x="700" y="510" as="sourcePoint" />
            <mxPoint x="750" y="460" as="targetPoint" />
          </mxGeometry>
        </mxCell>
        <mxCell id="0nW2uWBSh4pnIqIu4Ily-24" value="Vlasnik&amp;nbsp;&lt;br&gt;" style="shape=umlActor;verticalLabelPosition=bottom;verticalAlign=top;html=1;outlineConnect=0;" vertex="1" parent="1">
          <mxGeometry x="1130" y="810" width="30" height="60" as="geometry" />
        </mxCell>
        <mxCell id="0nW2uWBSh4pnIqIu4Ily-25" value="" style="endArrow=none;html=1;rounded=0;exitX=0.983;exitY=0.375;exitDx=0;exitDy=0;exitPerimeter=0;entryX=0.5;entryY=0.5;entryDx=0;entryDy=0;entryPerimeter=0;" edge="1" parent="1" source="0nW2uWBSh4pnIqIu4Ily-23" target="0nW2uWBSh4pnIqIu4Ily-24">
          <mxGeometry width="50" height="50" relative="1" as="geometry">
            <mxPoint x="700" y="710" as="sourcePoint" />
            <mxPoint x="750" y="660" as="targetPoint" />
          </mxGeometry>
        </mxCell>
        <mxCell id="0nW2uWBSh4pnIqIu4Ily-26" value="" style="endArrow=none;html=1;rounded=0;exitX=0.5;exitY=0.5;exitDx=0;exitDy=0;exitPerimeter=0;entryX=0;entryY=0.5;entryDx=0;entryDy=0;" edge="1" parent="1" source="0nW2uWBSh4pnIqIu4Ily-14" target="gg4HVY9TAaVVfvh8KX-W-9">
          <mxGeometry width="50" height="50" relative="1" as="geometry">
            <mxPoint x="700" y="510" as="sourcePoint" />
            <mxPoint x="750" y="460" as="targetPoint" />
          </mxGeometry>
        </mxCell>
        <mxCell id="0nW2uWBSh4pnIqIu4Ily-28" value="" style="endArrow=none;dashed=1;html=1;dashPattern=1 3;strokeWidth=2;rounded=0;exitX=0.5;exitY=1;exitDx=0;exitDy=0;entryX=0.5;entryY=0;entryDx=0;entryDy=0;" edge="1" parent="1" source="gg4HVY9TAaVVfvh8KX-W-9" target="gg4HVY9TAaVVfvh8KX-W-24">
          <mxGeometry width="50" height="50" relative="1" as="geometry">
            <mxPoint x="700" y="410" as="sourcePoint" />
            <mxPoint x="750" y="360" as="targetPoint" />
          </mxGeometry>
        </mxCell>
        <mxCell id="0nW2uWBSh4pnIqIu4Ily-30" value="" style="endArrow=none;dashed=1;html=1;dashPattern=1 3;strokeWidth=2;rounded=0;exitX=0.5;exitY=1;exitDx=0;exitDy=0;" edge="1" parent="1" source="gg4HVY9TAaVVfvh8KX-W-24" target="gg4HVY9TAaVVfvh8KX-W-40">
          <mxGeometry width="50" height="50" relative="1" as="geometry">
            <mxPoint x="700" y="510" as="sourcePoint" />
            <mxPoint x="750" y="460" as="targetPoint" />
          </mxGeometry>
        </mxCell>
        <mxCell id="0nW2uWBSh4pnIqIu4Ily-49" value="" style="endArrow=none;dashed=1;html=1;dashPattern=1 3;strokeWidth=2;rounded=0;exitX=0.442;exitY=0.988;exitDx=0;exitDy=0;exitPerimeter=0;" edge="1" parent="1" source="gg4HVY9TAaVVfvh8KX-W-40">
          <mxGeometry width="50" height="50" relative="1" as="geometry">
            <mxPoint x="440" y="660" as="sourcePoint" />
            <mxPoint x="223" y="530" as="targetPoint" />
          </mxGeometry>
        </mxCell>
        <mxCell id="NVhraX7yO4u_frwCjtcj-4" value="" style="endArrow=none;dashed=1;html=1;dashPattern=1 3;strokeWidth=2;rounded=0;exitX=1;exitY=1;exitDx=0;exitDy=0;entryX=0.027;entryY=0.306;entryDx=0;entryDy=0;entryPerimeter=0;" edge="1" parent="1" source="gg4HVY9TAaVVfvh8KX-W-40" target="NVhraX7yO4u_frwCjtcj-3">
          <mxGeometry width="50" height="50" relative="1" as="geometry">
            <mxPoint x="510" y="530" as="sourcePoint" />
            <mxPoint x="560" y="480" as="targetPoint" />
          </mxGeometry>
        </mxCell>
      </root>
    </mxGraphModel>
  </diagram>
</mxfile>
